<mxfile host="app.diagrams.net" agent="Mozilla/5.0 (Windows NT 10.0; Win64; x64) AppleWebKit/537.36 (KHTML, like Gecko) Chrome/127.0.0.0 Safari/537.36 Edg/127.0.0.0" version="24.7.7">
  <diagram name="Page-1" id="nyc2K-rMTlG-dw1oFCkc">
    <mxGraphModel dx="2116" dy="1009" grid="0" gridSize="12" guides="1" tooltips="1" connect="1" arrows="1" fold="1" page="1" pageScale="1" pageWidth="2336" pageHeight="1654" math="0" shadow="0">
      <root>
        <mxCell id="0" />
        <mxCell id="1" parent="0" />
        <mxCell id="TysYCp-ceym04RC-b8es-7" value="&lt;h1&gt;Categories&lt;/h1&gt;" style="rounded=1;arcSize=10;whiteSpace=wrap;html=1;align=center;sketch=1;curveFitting=1;jiggle=2;labelBackgroundColor=none;glass=1;shadow=1;fontStyle=1;fontSize=16;fontFamily=Times New Roman;" parent="1" vertex="1">
          <mxGeometry x="1658" y="1256" width="240" height="72" as="geometry" />
        </mxCell>
        <mxCell id="TysYCp-ceym04RC-b8es-8" value="&lt;h1&gt;User&lt;/h1&gt;" style="rounded=1;arcSize=10;whiteSpace=wrap;html=1;align=center;sketch=1;curveFitting=1;jiggle=2;labelBackgroundColor=none;glass=1;shadow=1;fontStyle=1;fontSize=16;fontFamily=Times New Roman;" parent="1" vertex="1">
          <mxGeometry x="1079" y="400" width="240" height="72" as="geometry" />
        </mxCell>
        <mxCell id="TysYCp-ceym04RC-b8es-13" value="&lt;h1&gt;Posting&lt;/h1&gt;" style="rounded=1;arcSize=10;whiteSpace=wrap;html=1;align=center;sketch=1;curveFitting=1;jiggle=2;labelBackgroundColor=none;glass=1;shadow=1;fontStyle=1;fontSize=16;fontFamily=Times New Roman;" parent="1" vertex="1">
          <mxGeometry x="1643" y="883" width="240" height="72" as="geometry" />
        </mxCell>
        <mxCell id="TysYCp-ceym04RC-b8es-14" value="&lt;h1&gt;Tasker&lt;/h1&gt;" style="rounded=1;arcSize=10;whiteSpace=wrap;html=1;align=center;sketch=1;curveFitting=1;jiggle=2;labelBackgroundColor=none;glass=1;shadow=1;fontStyle=1;fontSize=16;fontFamily=Times New Roman;" parent="1" vertex="1">
          <mxGeometry x="557" y="1184" width="240" height="72" as="geometry" />
        </mxCell>
        <mxCell id="TysYCp-ceym04RC-b8es-19" value="&lt;font style=&quot;font-size: 18px;&quot;&gt;&lt;b&gt;email&lt;/b&gt;&lt;/font&gt;" style="ellipse;whiteSpace=wrap;html=1;align=center;rounded=1;" parent="1" vertex="1">
          <mxGeometry x="825" y="176" width="100" height="40" as="geometry" />
        </mxCell>
        <mxCell id="TysYCp-ceym04RC-b8es-20" value="&lt;span style=&quot;font-size: 18px;&quot;&gt;&lt;b&gt;phone_number&lt;/b&gt;&lt;/span&gt;" style="ellipse;whiteSpace=wrap;html=1;align=center;rounded=1;" parent="1" vertex="1">
          <mxGeometry x="940" y="124" width="148" height="60" as="geometry" />
        </mxCell>
        <mxCell id="TysYCp-ceym04RC-b8es-22" value="&lt;span style=&quot;font-size: 20px;&quot;&gt;&lt;b&gt;name&lt;/b&gt;&lt;/span&gt;" style="ellipse;whiteSpace=wrap;html=1;align=center;rounded=1;" parent="1" vertex="1">
          <mxGeometry x="1477" y="221" width="100" height="40" as="geometry" />
        </mxCell>
        <mxCell id="TysYCp-ceym04RC-b8es-32" value="&lt;font style=&quot;font-size: 18px;&quot;&gt;&lt;b&gt;locations&lt;/b&gt;&lt;/font&gt;" style="ellipse;shape=doubleEllipse;margin=3;whiteSpace=wrap;html=1;align=center;rounded=1;" parent="1" vertex="1">
          <mxGeometry x="1094" y="104" width="100" height="60" as="geometry" />
        </mxCell>
        <mxCell id="TysYCp-ceym04RC-b8es-37" value="&lt;b style=&quot;&quot;&gt;&lt;font style=&quot;font-size: 20px;&quot;&gt;profile_picutre&lt;/font&gt;&lt;/b&gt;" style="ellipse;whiteSpace=wrap;html=1;align=center;rounded=1;" parent="1" vertex="1">
          <mxGeometry x="1233" y="95" width="144" height="68" as="geometry" />
        </mxCell>
        <mxCell id="TysYCp-ceym04RC-b8es-42" style="edgeStyle=orthogonalEdgeStyle;rounded=1;orthogonalLoop=1;jettySize=auto;html=1;exitX=0.5;exitY=1;exitDx=0;exitDy=0;" parent="1" source="TysYCp-ceym04RC-b8es-22" target="TysYCp-ceym04RC-b8es-22" edge="1">
          <mxGeometry relative="1" as="geometry" />
        </mxCell>
        <mxCell id="TysYCp-ceym04RC-b8es-56" value="" style="endArrow=none;html=1;rounded=1;entryX=0.101;entryY=1.005;entryDx=0;entryDy=0;entryPerimeter=0;" parent="1" source="TysYCp-ceym04RC-b8es-57" target="TysYCp-ceym04RC-b8es-8" edge="1">
          <mxGeometry width="50" height="50" relative="1" as="geometry">
            <mxPoint x="343" y="350" as="sourcePoint" />
            <mxPoint x="338" y="252" as="targetPoint" />
          </mxGeometry>
        </mxCell>
        <mxCell id="TysYCp-ceym04RC-b8es-57" value="" style="ellipse;whiteSpace=wrap;html=1;rounded=1;" parent="1" vertex="1">
          <mxGeometry x="896" y="598" width="55" height="49" as="geometry" />
        </mxCell>
        <mxCell id="TysYCp-ceym04RC-b8es-66" value="" style="endArrow=none;html=1;rounded=0;exitX=0;exitY=1;exitDx=0;exitDy=0;entryX=0.356;entryY=-0.038;entryDx=0;entryDy=0;entryPerimeter=0;" parent="1" source="TysYCp-ceym04RC-b8es-57" target="TysYCp-ceym04RC-b8es-14" edge="1">
          <mxGeometry relative="1" as="geometry">
            <mxPoint x="513" y="411" as="sourcePoint" />
            <mxPoint x="673" y="411" as="targetPoint" />
            <Array as="points" />
          </mxGeometry>
        </mxCell>
        <mxCell id="TysYCp-ceym04RC-b8es-94" value="inherit" style="edgeLabel;html=1;align=center;verticalAlign=middle;resizable=0;points=[];rounded=1;" parent="TysYCp-ceym04RC-b8es-66" vertex="1" connectable="0">
          <mxGeometry x="-0.2212" y="7" relative="1" as="geometry">
            <mxPoint y="-1" as="offset" />
          </mxGeometry>
        </mxCell>
        <mxCell id="TysYCp-ceym04RC-b8es-67" value="&lt;span style=&quot;border-bottom: 1px dotted&quot;&gt;&lt;font size=&quot;1&quot; style=&quot;&quot;&gt;&lt;b style=&quot;font-size: 20px;&quot;&gt;id&lt;/b&gt;&lt;/font&gt;&lt;/span&gt;" style="ellipse;whiteSpace=wrap;html=1;align=center;rounded=1;" parent="1" vertex="1">
          <mxGeometry x="1570" y="321" width="100" height="40" as="geometry" />
        </mxCell>
        <mxCell id="TysYCp-ceym04RC-b8es-68" value="&lt;span style=&quot;border-bottom: 1px dotted&quot;&gt;&lt;font style=&quot;font-size: 20px;&quot;&gt;id&lt;/font&gt;&lt;/span&gt;" style="ellipse;whiteSpace=wrap;html=1;align=center;rounded=1;" parent="1" vertex="1">
          <mxGeometry x="956" y="1453" width="100" height="40" as="geometry" />
        </mxCell>
        <mxCell id="TysYCp-ceym04RC-b8es-70" value="&lt;font style=&quot;font-size: 18px;&quot;&gt;&lt;b&gt;skills&lt;/b&gt;&lt;/font&gt;" style="ellipse;shape=doubleEllipse;margin=3;whiteSpace=wrap;html=1;align=center;rounded=1;" parent="1" vertex="1">
          <mxGeometry x="159" y="1076" width="100" height="60" as="geometry" />
        </mxCell>
        <mxCell id="TysYCp-ceym04RC-b8es-71" value="&lt;font size=&quot;1&quot; style=&quot;&quot;&gt;&lt;b style=&quot;font-size: 20px;&quot;&gt;subcatecoreis&lt;/b&gt;&lt;/font&gt;" style="ellipse;shape=doubleEllipse;margin=3;whiteSpace=wrap;html=1;align=center;rounded=1;" parent="1" vertex="1">
          <mxGeometry x="1949" y="1438.5" width="180" height="69" as="geometry" />
        </mxCell>
        <mxCell id="TysYCp-ceym04RC-b8es-73" style="edgeStyle=orthogonalEdgeStyle;rounded=1;orthogonalLoop=1;jettySize=auto;html=1;exitX=0.5;exitY=1;exitDx=0;exitDy=0;" parent="1" edge="1">
          <mxGeometry relative="1" as="geometry">
            <mxPoint x="1046" y="204" as="sourcePoint" />
            <mxPoint x="1046" y="204" as="targetPoint" />
          </mxGeometry>
        </mxCell>
        <mxCell id="TysYCp-ceym04RC-b8es-78" value="" style="endArrow=none;html=1;rounded=0;entryX=0.5;entryY=1;entryDx=0;entryDy=0;exitX=0.063;exitY=-0.03;exitDx=0;exitDy=0;exitPerimeter=0;" parent="1" source="TysYCp-ceym04RC-b8es-8" target="TysYCp-ceym04RC-b8es-19" edge="1">
          <mxGeometry relative="1" as="geometry">
            <mxPoint x="513" y="411" as="sourcePoint" />
            <mxPoint x="673" y="411" as="targetPoint" />
          </mxGeometry>
        </mxCell>
        <mxCell id="TysYCp-ceym04RC-b8es-79" value="" style="endArrow=none;html=1;rounded=0;entryX=0.5;entryY=1;entryDx=0;entryDy=0;exitX=0.147;exitY=0.096;exitDx=0;exitDy=0;exitPerimeter=0;" parent="1" source="TysYCp-ceym04RC-b8es-8" target="TysYCp-ceym04RC-b8es-20" edge="1">
          <mxGeometry relative="1" as="geometry">
            <mxPoint x="513" y="411" as="sourcePoint" />
            <mxPoint x="673" y="411" as="targetPoint" />
          </mxGeometry>
        </mxCell>
        <mxCell id="TysYCp-ceym04RC-b8es-80" value="" style="endArrow=none;html=1;rounded=0;entryX=0.5;entryY=1;entryDx=0;entryDy=0;exitX=0.25;exitY=0;exitDx=0;exitDy=0;" parent="1" source="TysYCp-ceym04RC-b8es-8" target="TysYCp-ceym04RC-b8es-32" edge="1">
          <mxGeometry relative="1" as="geometry">
            <mxPoint x="513" y="411" as="sourcePoint" />
            <mxPoint x="673" y="411" as="targetPoint" />
          </mxGeometry>
        </mxCell>
        <mxCell id="TysYCp-ceym04RC-b8es-81" value="" style="endArrow=none;html=1;rounded=0;entryX=0.361;entryY=0.975;entryDx=0;entryDy=0;entryPerimeter=0;exitX=0.5;exitY=0;exitDx=0;exitDy=0;" parent="1" source="TysYCp-ceym04RC-b8es-8" target="TysYCp-ceym04RC-b8es-37" edge="1">
          <mxGeometry relative="1" as="geometry">
            <mxPoint x="513" y="411" as="sourcePoint" />
            <mxPoint x="673" y="411" as="targetPoint" />
          </mxGeometry>
        </mxCell>
        <mxCell id="TysYCp-ceym04RC-b8es-82" value="" style="endArrow=none;html=1;rounded=0;entryX=0;entryY=1;entryDx=0;entryDy=0;exitX=0.632;exitY=0.046;exitDx=0;exitDy=0;exitPerimeter=0;" parent="1" source="TysYCp-ceym04RC-b8es-8" target="TysYCp-ceym04RC-b8es-22" edge="1">
          <mxGeometry relative="1" as="geometry">
            <mxPoint x="669" y="376" as="sourcePoint" />
            <mxPoint x="829" y="376" as="targetPoint" />
          </mxGeometry>
        </mxCell>
        <mxCell id="TysYCp-ceym04RC-b8es-83" value="" style="endArrow=none;html=1;rounded=0;entryX=0;entryY=1;entryDx=0;entryDy=0;exitX=1;exitY=0;exitDx=0;exitDy=0;" parent="1" source="TysYCp-ceym04RC-b8es-8" target="TysYCp-ceym04RC-b8es-67" edge="1">
          <mxGeometry relative="1" as="geometry">
            <mxPoint x="669" y="376" as="sourcePoint" />
            <mxPoint x="829" y="376" as="targetPoint" />
          </mxGeometry>
        </mxCell>
        <mxCell id="TysYCp-ceym04RC-b8es-84" style="edgeStyle=orthogonalEdgeStyle;rounded=1;orthogonalLoop=1;jettySize=auto;html=1;exitX=0.5;exitY=1;exitDx=0;exitDy=0;" parent="1" source="TysYCp-ceym04RC-b8es-37" target="TysYCp-ceym04RC-b8es-37" edge="1">
          <mxGeometry relative="1" as="geometry" />
        </mxCell>
        <mxCell id="TysYCp-ceym04RC-b8es-85" value="&lt;span style=&quot;font-size: 20px;&quot;&gt;&lt;b&gt;password&lt;/b&gt;&lt;/span&gt;" style="ellipse;whiteSpace=wrap;html=1;align=center;rounded=1;" parent="1" vertex="1">
          <mxGeometry x="1381" y="150" width="100" height="40" as="geometry" />
        </mxCell>
        <mxCell id="TysYCp-ceym04RC-b8es-86" value="" style="endArrow=none;html=1;rounded=0;entryX=0.5;entryY=1;entryDx=0;entryDy=0;exitX=0.5;exitY=0;exitDx=0;exitDy=0;" parent="1" source="TysYCp-ceym04RC-b8es-8" target="TysYCp-ceym04RC-b8es-85" edge="1">
          <mxGeometry relative="1" as="geometry">
            <mxPoint x="669" y="376" as="sourcePoint" />
            <mxPoint x="829" y="376" as="targetPoint" />
          </mxGeometry>
        </mxCell>
        <mxCell id="TysYCp-ceym04RC-b8es-87" value="&lt;b style=&quot;&quot;&gt;&lt;font style=&quot;font-size: 20px;&quot;&gt;comment&lt;/font&gt;&lt;/b&gt;" style="ellipse;whiteSpace=wrap;html=1;align=center;rounded=1;" parent="1" vertex="1">
          <mxGeometry x="452" y="470" width="111" height="39" as="geometry" />
        </mxCell>
        <mxCell id="TysYCp-ceym04RC-b8es-89" value="&lt;font style=&quot;font-size: 20px;&quot;&gt;&lt;b&gt;writes&lt;/b&gt;&lt;/font&gt;" style="shape=rhombus;perimeter=rhombusPerimeter;whiteSpace=wrap;html=1;align=center;rounded=1;" parent="1" vertex="1">
          <mxGeometry x="1570" y="420" width="189" height="102" as="geometry" />
        </mxCell>
        <mxCell id="TysYCp-ceym04RC-b8es-90" value="&lt;font style=&quot;font-size: 20px;&quot;&gt;&lt;b&gt;apply&lt;/b&gt;&lt;/font&gt;" style="shape=rhombus;perimeter=rhombusPerimeter;whiteSpace=wrap;html=1;align=center;rounded=1;" parent="1" vertex="1">
          <mxGeometry x="1272" y="1213" width="189" height="102" as="geometry" />
        </mxCell>
        <mxCell id="TysYCp-ceym04RC-b8es-91" value="&lt;span style=&quot;font-size: 20px;&quot;&gt;communicate&lt;/span&gt;" style="shape=rhombus;perimeter=rhombusPerimeter;whiteSpace=wrap;html=1;align=center;rounded=1;" parent="1" vertex="1">
          <mxGeometry x="1104.5" y="639" width="189" height="102" as="geometry" />
        </mxCell>
        <mxCell id="TysYCp-ceym04RC-b8es-92" value="" style="endArrow=none;html=1;rounded=0;entryX=1;entryY=1;entryDx=0;entryDy=0;" parent="1" source="TysYCp-ceym04RC-b8es-89" target="TysYCp-ceym04RC-b8es-8" edge="1">
          <mxGeometry relative="1" as="geometry">
            <mxPoint x="1537" y="601" as="sourcePoint" />
            <mxPoint x="829" y="376" as="targetPoint" />
          </mxGeometry>
        </mxCell>
        <mxCell id="TysYCp-ceym04RC-b8es-93" value="" style="endArrow=none;html=1;rounded=0;entryX=0.098;entryY=0.102;entryDx=0;entryDy=0;exitX=0.5;exitY=1;exitDx=0;exitDy=0;entryPerimeter=0;" parent="1" source="TysYCp-ceym04RC-b8es-89" target="TysYCp-ceym04RC-b8es-13" edge="1">
          <mxGeometry relative="1" as="geometry">
            <mxPoint x="1694" y="635" as="sourcePoint" />
            <mxPoint x="1331" y="484" as="targetPoint" />
          </mxGeometry>
        </mxCell>
        <mxCell id="TysYCp-ceym04RC-b8es-95" value="" style="endArrow=none;html=1;rounded=0;entryX=1;entryY=0;entryDx=0;entryDy=0;exitX=0.424;exitY=1.066;exitDx=0;exitDy=0;exitPerimeter=0;" parent="1" source="TysYCp-ceym04RC-b8es-13" target="TysYCp-ceym04RC-b8es-90" edge="1">
          <mxGeometry relative="1" as="geometry">
            <mxPoint x="1770" y="712" as="sourcePoint" />
            <mxPoint x="1997" y="819" as="targetPoint" />
          </mxGeometry>
        </mxCell>
        <mxCell id="TysYCp-ceym04RC-b8es-96" value="" style="endArrow=none;html=1;rounded=0;entryX=0.081;entryY=0.514;entryDx=0;entryDy=0;exitX=1;exitY=1;exitDx=0;exitDy=0;entryPerimeter=0;" parent="1" source="TysYCp-ceym04RC-b8es-14" target="TysYCp-ceym04RC-b8es-90" edge="1">
          <mxGeometry relative="1" as="geometry">
            <mxPoint x="1461" y="1210" as="sourcePoint" />
            <mxPoint x="1387" y="1045" as="targetPoint" />
          </mxGeometry>
        </mxCell>
        <mxCell id="TysYCp-ceym04RC-b8es-98" value="&lt;span style=&quot;border-bottom: 1px dotted&quot;&gt;&lt;font style=&quot;font-size: 20px;&quot;&gt;id&lt;/font&gt;&lt;/span&gt;" style="ellipse;whiteSpace=wrap;html=1;align=center;rounded=1;" parent="1" vertex="1">
          <mxGeometry x="1558" y="1418" width="100" height="40" as="geometry" />
        </mxCell>
        <mxCell id="TysYCp-ceym04RC-b8es-100" value="&lt;font style=&quot;font-size: 20px;&quot;&gt;&lt;b&gt;reviews&lt;/b&gt;&lt;/font&gt;" style="shape=rhombus;perimeter=rhombusPerimeter;whiteSpace=wrap;html=1;align=center;rounded=1;" parent="1" vertex="1">
          <mxGeometry x="426" y="658" width="189" height="102" as="geometry" />
        </mxCell>
        <mxCell id="TysYCp-ceym04RC-b8es-101" value="" style="endArrow=none;html=1;rounded=0;entryX=0.5;entryY=1;entryDx=0;entryDy=0;exitX=0.5;exitY=0;exitDx=0;exitDy=0;" parent="1" source="TysYCp-ceym04RC-b8es-91" target="TysYCp-ceym04RC-b8es-8" edge="1">
          <mxGeometry relative="1" as="geometry">
            <mxPoint x="669" y="376" as="sourcePoint" />
            <mxPoint x="829" y="376" as="targetPoint" />
          </mxGeometry>
        </mxCell>
        <mxCell id="TysYCp-ceym04RC-b8es-102" value="" style="endArrow=none;html=1;rounded=0;exitX=1;exitY=0.5;exitDx=0;exitDy=0;" parent="1" source="TysYCp-ceym04RC-b8es-14" target="TysYCp-ceym04RC-b8es-91" edge="1">
          <mxGeometry relative="1" as="geometry">
            <mxPoint x="1018" y="698" as="sourcePoint" />
            <mxPoint x="1500.75" y="1037.5" as="targetPoint" />
          </mxGeometry>
        </mxCell>
        <mxCell id="TysYCp-ceym04RC-b8es-103" value="&lt;span style=&quot;font-size: 20px;&quot;&gt;&lt;b&gt;budget&lt;/b&gt;&lt;/span&gt;" style="ellipse;whiteSpace=wrap;html=1;align=center;rounded=1;" parent="1" vertex="1">
          <mxGeometry x="2122" y="799" width="100" height="40" as="geometry" />
        </mxCell>
        <mxCell id="TysYCp-ceym04RC-b8es-105" value="&lt;span style=&quot;border-bottom: 1px dotted&quot;&gt;&lt;font style=&quot;font-size: 20px;&quot;&gt;id&lt;/font&gt;&lt;/span&gt;" style="ellipse;whiteSpace=wrap;html=1;align=center;rounded=1;" parent="1" vertex="1">
          <mxGeometry x="1707" y="658" width="100" height="40" as="geometry" />
        </mxCell>
        <mxCell id="TysYCp-ceym04RC-b8es-106" value="&lt;span style=&quot;font-size: 20px;&quot;&gt;&lt;b&gt;data&lt;/b&gt;&lt;/span&gt;" style="ellipse;whiteSpace=wrap;html=1;align=center;rounded=1;" parent="1" vertex="1">
          <mxGeometry x="2111" y="698" width="100" height="40" as="geometry" />
        </mxCell>
        <mxCell id="TysYCp-ceym04RC-b8es-108" value="&lt;font style=&quot;font-size: 20px;&quot;&gt;keywords&lt;/font&gt;" style="ellipse;whiteSpace=wrap;html=1;align=center;dashed=1;rounded=1;" parent="1" vertex="1">
          <mxGeometry x="42" y="759" width="100" height="40" as="geometry" />
        </mxCell>
        <mxCell id="TysYCp-ceym04RC-b8es-112" value="&lt;span style=&quot;font-size: 20px;&quot;&gt;&lt;b&gt;pricing&lt;/b&gt;&lt;/span&gt;" style="ellipse;whiteSpace=wrap;html=1;align=center;rounded=1;" parent="1" vertex="1">
          <mxGeometry x="450" y="1478" width="107" height="48" as="geometry" />
        </mxCell>
        <mxCell id="TysYCp-ceym04RC-b8es-114" value="" style="endArrow=none;html=1;rounded=0;entryX=0;entryY=0.5;entryDx=0;entryDy=0;exitX=1;exitY=0;exitDx=0;exitDy=0;" parent="1" source="TysYCp-ceym04RC-b8es-117" target="TysYCp-ceym04RC-b8es-8" edge="1">
          <mxGeometry relative="1" as="geometry">
            <mxPoint x="223" y="461" as="sourcePoint" />
            <mxPoint x="359" y="363" as="targetPoint" />
          </mxGeometry>
        </mxCell>
        <mxCell id="TysYCp-ceym04RC-b8es-115" value="" style="endArrow=none;html=1;rounded=0;entryX=0;entryY=1;entryDx=0;entryDy=0;exitX=1;exitY=0.5;exitDx=0;exitDy=0;" parent="1" source="TysYCp-ceym04RC-b8es-100" target="TysYCp-ceym04RC-b8es-8" edge="1">
          <mxGeometry relative="1" as="geometry">
            <mxPoint x="199" y="363" as="sourcePoint" />
            <mxPoint x="359" y="363" as="targetPoint" />
          </mxGeometry>
        </mxCell>
        <mxCell id="TysYCp-ceym04RC-b8es-116" value="" style="endArrow=none;html=1;rounded=0;entryX=0.5;entryY=1;entryDx=0;entryDy=0;exitX=0.073;exitY=-0.014;exitDx=0;exitDy=0;exitPerimeter=0;" parent="1" source="TysYCp-ceym04RC-b8es-14" target="TysYCp-ceym04RC-b8es-100" edge="1">
          <mxGeometry relative="1" as="geometry">
            <mxPoint x="759" y="830" as="sourcePoint" />
            <mxPoint x="359" y="363" as="targetPoint" />
          </mxGeometry>
        </mxCell>
        <mxCell id="TysYCp-ceym04RC-b8es-117" value="&lt;font style=&quot;font-size: 20px;&quot;&gt;&lt;b&gt;search&lt;/b&gt;&lt;/font&gt;" style="shape=rhombus;perimeter=rhombusPerimeter;whiteSpace=wrap;html=1;align=center;rounded=1;" parent="1" vertex="1">
          <mxGeometry x="70" y="568" width="189" height="102" as="geometry" />
        </mxCell>
        <mxCell id="TysYCp-ceym04RC-b8es-119" value="" style="endArrow=none;html=1;rounded=0;entryX=0;entryY=0.25;entryDx=0;entryDy=0;exitX=0.5;exitY=1;exitDx=0;exitDy=0;" parent="1" source="TysYCp-ceym04RC-b8es-117" target="TysYCp-ceym04RC-b8es-14" edge="1">
          <mxGeometry relative="1" as="geometry">
            <mxPoint x="390" y="570" as="sourcePoint" />
            <mxPoint x="538.5" y="805" as="targetPoint" />
          </mxGeometry>
        </mxCell>
        <mxCell id="TysYCp-ceym04RC-b8es-120" value="" style="endArrow=none;html=1;rounded=0;entryX=0;entryY=1;entryDx=0;entryDy=0;exitX=0.5;exitY=0;exitDx=0;exitDy=0;" parent="1" source="TysYCp-ceym04RC-b8es-108" target="TysYCp-ceym04RC-b8es-117" edge="1">
          <mxGeometry relative="1" as="geometry">
            <mxPoint x="199" y="363" as="sourcePoint" />
            <mxPoint x="359" y="363" as="targetPoint" />
          </mxGeometry>
        </mxCell>
        <mxCell id="TysYCp-ceym04RC-b8es-121" value="&lt;span style=&quot;font-size: 20px;&quot;&gt;&lt;b&gt;message&lt;/b&gt;&lt;/span&gt;" style="ellipse;whiteSpace=wrap;html=1;align=center;rounded=1;" parent="1" vertex="1">
          <mxGeometry x="1388" y="693" width="100" height="40" as="geometry" />
        </mxCell>
        <mxCell id="TysYCp-ceym04RC-b8es-122" value="&lt;span style=&quot;font-size: 20px;&quot;&gt;&lt;b&gt;rating&lt;/b&gt;&lt;/span&gt;" style="ellipse;whiteSpace=wrap;html=1;align=center;rounded=1;" parent="1" vertex="1">
          <mxGeometry x="270" y="667" width="100" height="40" as="geometry" />
        </mxCell>
        <mxCell id="TysYCp-ceym04RC-b8es-123" value="&lt;span style=&quot;border-bottom: 1px dotted&quot;&gt;&lt;font style=&quot;font-size: 20px;&quot;&gt;id&lt;/font&gt;&lt;/span&gt;" style="ellipse;whiteSpace=wrap;html=1;align=center;rounded=1;" parent="1" vertex="1">
          <mxGeometry x="1324" y="759" width="85" height="51" as="geometry" />
        </mxCell>
        <mxCell id="TysYCp-ceym04RC-b8es-125" value="" style="endArrow=none;html=1;rounded=0;entryX=0;entryY=0;entryDx=0;entryDy=0;exitX=1;exitY=1;exitDx=0;exitDy=0;" parent="1" source="TysYCp-ceym04RC-b8es-91" target="TysYCp-ceym04RC-b8es-121" edge="1">
          <mxGeometry relative="1" as="geometry">
            <mxPoint x="903" y="729" as="sourcePoint" />
            <mxPoint x="1063" y="729" as="targetPoint" />
          </mxGeometry>
        </mxCell>
        <mxCell id="TysYCp-ceym04RC-b8es-127" value="" style="endArrow=none;html=1;rounded=0;exitX=0.684;exitY=0.824;exitDx=0;exitDy=0;exitPerimeter=0;" parent="1" source="TysYCp-ceym04RC-b8es-91" target="TysYCp-ceym04RC-b8es-123" edge="1">
          <mxGeometry relative="1" as="geometry">
            <mxPoint x="1258" y="728" as="sourcePoint" />
            <mxPoint x="1415" y="711" as="targetPoint" />
          </mxGeometry>
        </mxCell>
        <mxCell id="TysYCp-ceym04RC-b8es-132" value="" style="endArrow=none;html=1;rounded=0;entryX=0.5;entryY=0;entryDx=0;entryDy=0;exitX=0.5;exitY=1;exitDx=0;exitDy=0;" parent="1" source="TysYCp-ceym04RC-b8es-87" target="TysYCp-ceym04RC-b8es-100" edge="1">
          <mxGeometry relative="1" as="geometry">
            <mxPoint x="199" y="363" as="sourcePoint" />
            <mxPoint x="359" y="363" as="targetPoint" />
          </mxGeometry>
        </mxCell>
        <mxCell id="TysYCp-ceym04RC-b8es-133" value="" style="endArrow=none;html=1;rounded=0;entryX=0.08;entryY=0.389;entryDx=0;entryDy=0;entryPerimeter=0;exitX=1;exitY=0.5;exitDx=0;exitDy=0;" parent="1" source="TysYCp-ceym04RC-b8es-122" target="TysYCp-ceym04RC-b8es-100" edge="1">
          <mxGeometry relative="1" as="geometry">
            <mxPoint x="199" y="363" as="sourcePoint" />
            <mxPoint x="359" y="363" as="targetPoint" />
          </mxGeometry>
        </mxCell>
        <mxCell id="TysYCp-ceym04RC-b8es-136" style="edgeStyle=orthogonalEdgeStyle;rounded=1;orthogonalLoop=1;jettySize=auto;html=1;exitX=0.5;exitY=1;exitDx=0;exitDy=0;" parent="1" source="TysYCp-ceym04RC-b8es-13" target="TysYCp-ceym04RC-b8es-13" edge="1">
          <mxGeometry relative="1" as="geometry" />
        </mxCell>
        <mxCell id="TysYCp-ceym04RC-b8es-139" value="" style="endArrow=none;html=1;rounded=0;entryX=0.568;entryY=1.037;entryDx=0;entryDy=0;exitX=0.5;exitY=0;exitDx=0;exitDy=0;entryPerimeter=0;" parent="1" source="UvagnndVl9to9qw16bUN-1" target="TysYCp-ceym04RC-b8es-13" edge="1">
          <mxGeometry relative="1" as="geometry">
            <mxPoint x="1757" y="972" as="sourcePoint" />
            <mxPoint x="1426" y="1251" as="targetPoint" />
          </mxGeometry>
        </mxCell>
        <mxCell id="TysYCp-ceym04RC-b8es-140" value="&lt;b style=&quot;&quot;&gt;&lt;font style=&quot;font-size: 20px;&quot;&gt;attchments&lt;/font&gt;&lt;/b&gt;" style="ellipse;shape=doubleEllipse;margin=3;whiteSpace=wrap;html=1;align=center;rounded=1;" parent="1" vertex="1">
          <mxGeometry x="2094.5" y="973" width="155" height="98" as="geometry" />
        </mxCell>
        <mxCell id="TysYCp-ceym04RC-b8es-143" style="edgeStyle=orthogonalEdgeStyle;rounded=1;orthogonalLoop=1;jettySize=auto;html=1;exitX=0.5;exitY=1;exitDx=0;exitDy=0;" parent="1" source="TysYCp-ceym04RC-b8es-68" target="TysYCp-ceym04RC-b8es-68" edge="1">
          <mxGeometry relative="1" as="geometry" />
        </mxCell>
        <mxCell id="TysYCp-ceym04RC-b8es-147" value="&lt;span style=&quot;font-size: 20px;&quot;&gt;&lt;b&gt;bio&lt;/b&gt;&lt;/span&gt;" style="ellipse;whiteSpace=wrap;html=1;align=center;rounded=1;" parent="1" vertex="1">
          <mxGeometry x="790" y="1489" width="131" height="33" as="geometry" />
        </mxCell>
        <mxCell id="TysYCp-ceym04RC-b8es-149" value="&lt;span style=&quot;font-size: 20px;&quot;&gt;&lt;b&gt;avgRating&lt;/b&gt;&lt;/span&gt;" style="ellipse;whiteSpace=wrap;html=1;align=center;rounded=1;" parent="1" vertex="1">
          <mxGeometry x="601" y="1483.5" width="122" height="46" as="geometry" />
        </mxCell>
        <mxCell id="TysYCp-ceym04RC-b8es-154" value="&lt;span style=&quot;font-size: 20px;&quot;&gt;&lt;b&gt;name&lt;/b&gt;&lt;/span&gt;" style="ellipse;whiteSpace=wrap;html=1;align=center;rounded=1;" parent="1" vertex="1">
          <mxGeometry x="1716" y="1445" width="133" height="44" as="geometry" />
        </mxCell>
        <mxCell id="TysYCp-ceym04RC-b8es-156" style="edgeStyle=orthogonalEdgeStyle;rounded=1;orthogonalLoop=1;jettySize=auto;html=1;exitX=0.5;exitY=1;exitDx=0;exitDy=0;" parent="1" source="TysYCp-ceym04RC-b8es-154" target="TysYCp-ceym04RC-b8es-154" edge="1">
          <mxGeometry relative="1" as="geometry" />
        </mxCell>
        <mxCell id="TysYCp-ceym04RC-b8es-157" value="&lt;span style=&quot;font-size: 20px;&quot;&gt;&lt;b&gt;status&lt;/b&gt;&lt;/span&gt;" style="ellipse;whiteSpace=wrap;html=1;align=center;rounded=1;" parent="1" vertex="1">
          <mxGeometry x="2167" y="880" width="100" height="40" as="geometry" />
        </mxCell>
        <mxCell id="TysYCp-ceym04RC-b8es-159" value="&lt;span style=&quot;font-size: 20px;&quot;&gt;&lt;b&gt;title&lt;/b&gt;&lt;/span&gt;" style="ellipse;whiteSpace=wrap;html=1;align=center;rounded=1;" parent="1" vertex="1">
          <mxGeometry x="1816" y="663" width="100" height="44" as="geometry" />
        </mxCell>
        <mxCell id="TysYCp-ceym04RC-b8es-164" value="&lt;span style=&quot;font-size: 20px;&quot;&gt;&lt;b&gt;description&lt;/b&gt;&lt;/span&gt;" style="ellipse;whiteSpace=wrap;html=1;align=center;rounded=1;" parent="1" vertex="1">
          <mxGeometry x="1932" y="649" width="155" height="58" as="geometry" />
        </mxCell>
        <mxCell id="TysYCp-ceym04RC-b8es-165" style="edgeStyle=orthogonalEdgeStyle;rounded=1;orthogonalLoop=1;jettySize=auto;html=1;exitX=0.5;exitY=1;exitDx=0;exitDy=0;" parent="1" source="TysYCp-ceym04RC-b8es-106" target="TysYCp-ceym04RC-b8es-106" edge="1">
          <mxGeometry relative="1" as="geometry" />
        </mxCell>
        <mxCell id="TysYCp-ceym04RC-b8es-168" style="edgeStyle=orthogonalEdgeStyle;rounded=1;orthogonalLoop=1;jettySize=auto;html=1;exitX=0.5;exitY=1;exitDx=0;exitDy=0;" parent="1" source="TysYCp-ceym04RC-b8es-157" target="TysYCp-ceym04RC-b8es-157" edge="1">
          <mxGeometry relative="1" as="geometry" />
        </mxCell>
        <mxCell id="TysYCp-ceym04RC-b8es-171" value="" style="endArrow=none;html=1;rounded=0;exitX=0.5;exitY=1;exitDx=0;exitDy=0;entryX=0.166;entryY=-0.049;entryDx=0;entryDy=0;entryPerimeter=0;" parent="1" source="TysYCp-ceym04RC-b8es-105" target="TysYCp-ceym04RC-b8es-13" edge="1">
          <mxGeometry relative="1" as="geometry">
            <mxPoint x="1688" y="810" as="sourcePoint" />
            <mxPoint x="1848" y="810" as="targetPoint" />
          </mxGeometry>
        </mxCell>
        <mxCell id="TysYCp-ceym04RC-b8es-172" value="" style="endArrow=none;html=1;rounded=0;exitX=0.388;exitY=0.999;exitDx=0;exitDy=0;entryX=0.75;entryY=0;entryDx=0;entryDy=0;exitPerimeter=0;" parent="1" source="TysYCp-ceym04RC-b8es-164" target="TysYCp-ceym04RC-b8es-13" edge="1">
          <mxGeometry relative="1" as="geometry">
            <mxPoint x="1764" y="753" as="sourcePoint" />
            <mxPoint x="1695" y="891" as="targetPoint" />
          </mxGeometry>
        </mxCell>
        <mxCell id="TysYCp-ceym04RC-b8es-173" value="" style="endArrow=none;html=1;rounded=0;exitX=0.5;exitY=1;exitDx=0;exitDy=0;" parent="1" source="TysYCp-ceym04RC-b8es-159" edge="1">
          <mxGeometry relative="1" as="geometry">
            <mxPoint x="1776" y="765" as="sourcePoint" />
            <mxPoint x="1747" y="879" as="targetPoint" />
          </mxGeometry>
        </mxCell>
        <mxCell id="TysYCp-ceym04RC-b8es-176" value="" style="endArrow=none;html=1;rounded=0;exitX=0;exitY=1;exitDx=0;exitDy=0;entryX=1;entryY=0;entryDx=0;entryDy=0;" parent="1" source="TysYCp-ceym04RC-b8es-106" target="TysYCp-ceym04RC-b8es-13" edge="1">
          <mxGeometry relative="1" as="geometry">
            <mxPoint x="1993" y="777" as="sourcePoint" />
            <mxPoint x="1835" y="895" as="targetPoint" />
          </mxGeometry>
        </mxCell>
        <mxCell id="TysYCp-ceym04RC-b8es-177" value="" style="endArrow=none;html=1;rounded=0;exitX=0;exitY=0.5;exitDx=0;exitDy=0;entryX=1;entryY=0.5;entryDx=0;entryDy=0;" parent="1" source="TysYCp-ceym04RC-b8es-103" target="TysYCp-ceym04RC-b8es-13" edge="1">
          <mxGeometry relative="1" as="geometry">
            <mxPoint x="2098" y="803" as="sourcePoint" />
            <mxPoint x="1895" y="895" as="targetPoint" />
          </mxGeometry>
        </mxCell>
        <mxCell id="TysYCp-ceym04RC-b8es-178" value="" style="endArrow=none;html=1;rounded=0;exitX=0;exitY=0;exitDx=0;exitDy=0;entryX=1;entryY=1;entryDx=0;entryDy=0;" parent="1" source="TysYCp-ceym04RC-b8es-157" target="TysYCp-ceym04RC-b8es-13" edge="1">
          <mxGeometry relative="1" as="geometry">
            <mxPoint x="2141" y="870" as="sourcePoint" />
            <mxPoint x="1895" y="931" as="targetPoint" />
          </mxGeometry>
        </mxCell>
        <mxCell id="TysYCp-ceym04RC-b8es-179" value="" style="endArrow=none;html=1;rounded=0;exitX=0;exitY=0;exitDx=0;exitDy=0;" parent="1" source="TysYCp-ceym04RC-b8es-140" edge="1">
          <mxGeometry relative="1" as="geometry">
            <mxPoint x="2139" y="947" as="sourcePoint" />
            <mxPoint x="1857" y="958" as="targetPoint" />
          </mxGeometry>
        </mxCell>
        <mxCell id="TysYCp-ceym04RC-b8es-183" value="" style="endArrow=none;html=1;rounded=0;exitX=0.26;exitY=0.076;exitDx=0;exitDy=0;exitPerimeter=0;entryX=1;entryY=1;entryDx=0;entryDy=0;" parent="1" source="TysYCp-ceym04RC-b8es-71" target="TysYCp-ceym04RC-b8es-7" edge="1">
          <mxGeometry relative="1" as="geometry">
            <mxPoint x="2129" y="999" as="sourcePoint" />
            <mxPoint x="1869" y="970" as="targetPoint" />
          </mxGeometry>
        </mxCell>
        <mxCell id="TysYCp-ceym04RC-b8es-184" value="" style="endArrow=none;html=1;rounded=0;exitX=0.5;exitY=0;exitDx=0;exitDy=0;entryX=0.75;entryY=1;entryDx=0;entryDy=0;" parent="1" source="TysYCp-ceym04RC-b8es-154" target="TysYCp-ceym04RC-b8es-7" edge="1">
          <mxGeometry relative="1" as="geometry">
            <mxPoint x="1986" y="1413" as="sourcePoint" />
            <mxPoint x="1910" y="1340" as="targetPoint" />
          </mxGeometry>
        </mxCell>
        <mxCell id="TysYCp-ceym04RC-b8es-185" value="" style="endArrow=none;html=1;rounded=0;exitX=0.5;exitY=0;exitDx=0;exitDy=0;entryX=0.25;entryY=1;entryDx=0;entryDy=0;" parent="1" source="TysYCp-ceym04RC-b8es-98" target="TysYCp-ceym04RC-b8es-7" edge="1">
          <mxGeometry relative="1" as="geometry">
            <mxPoint x="1800" y="1451" as="sourcePoint" />
            <mxPoint x="1850" y="1340" as="targetPoint" />
          </mxGeometry>
        </mxCell>
        <mxCell id="TysYCp-ceym04RC-b8es-187" value="&lt;font size=&quot;1&quot; style=&quot;&quot;&gt;&lt;b style=&quot;font-size: 20px;&quot;&gt;locations&lt;/b&gt;&lt;/font&gt;" style="ellipse;shape=doubleEllipse;margin=3;whiteSpace=wrap;html=1;align=center;rounded=1;" parent="1" vertex="1">
          <mxGeometry x="115" y="1180" width="120" height="65" as="geometry" />
        </mxCell>
        <mxCell id="TysYCp-ceym04RC-b8es-195" value="&lt;b style=&quot;&quot;&gt;&lt;font style=&quot;font-size: 20px;&quot;&gt;certifications&lt;/font&gt;&lt;/b&gt;" style="ellipse;shape=doubleEllipse;margin=3;whiteSpace=wrap;html=1;align=center;rounded=1;" parent="1" vertex="1">
          <mxGeometry x="57" y="1286" width="215" height="87" as="geometry" />
        </mxCell>
        <mxCell id="TysYCp-ceym04RC-b8es-196" value="&lt;span style=&quot;font-size: 20px;&quot;&gt;&lt;b&gt;categories_tasker&lt;/b&gt;&lt;/span&gt;" style="ellipse;shape=doubleEllipse;margin=3;whiteSpace=wrap;html=1;align=center;rounded=1;" parent="1" vertex="1">
          <mxGeometry x="146" y="1421" width="251" height="84" as="geometry" />
        </mxCell>
        <mxCell id="TysYCp-ceym04RC-b8es-198" value="" style="endArrow=none;html=1;rounded=0;entryX=0;entryY=0.5;entryDx=0;entryDy=0;exitX=1;exitY=1;exitDx=0;exitDy=0;" parent="1" source="TysYCp-ceym04RC-b8es-70" target="TysYCp-ceym04RC-b8es-14" edge="1">
          <mxGeometry relative="1" as="geometry">
            <mxPoint x="165" y="1013" as="sourcePoint" />
            <mxPoint x="330" y="1013" as="targetPoint" />
          </mxGeometry>
        </mxCell>
        <mxCell id="TysYCp-ceym04RC-b8es-199" value="" style="endArrow=none;html=1;rounded=0;entryX=0;entryY=0.5;entryDx=0;entryDy=0;exitX=1;exitY=0.5;exitDx=0;exitDy=0;" parent="1" source="TysYCp-ceym04RC-b8es-187" target="TysYCp-ceym04RC-b8es-14" edge="1">
          <mxGeometry relative="1" as="geometry">
            <mxPoint x="256" y="1139" as="sourcePoint" />
            <mxPoint x="569" y="1232" as="targetPoint" />
          </mxGeometry>
        </mxCell>
        <mxCell id="TysYCp-ceym04RC-b8es-200" value="" style="endArrow=none;html=1;rounded=0;exitX=0.975;exitY=0.364;exitDx=0;exitDy=0;exitPerimeter=0;entryX=0;entryY=1;entryDx=0;entryDy=0;" parent="1" source="TysYCp-ceym04RC-b8es-195" target="TysYCp-ceym04RC-b8es-14" edge="1">
          <mxGeometry relative="1" as="geometry">
            <mxPoint x="247" y="1225" as="sourcePoint" />
            <mxPoint x="554" y="1243" as="targetPoint" />
          </mxGeometry>
        </mxCell>
        <mxCell id="TysYCp-ceym04RC-b8es-201" value="" style="endArrow=none;html=1;rounded=0;entryX=0.25;entryY=1;entryDx=0;entryDy=0;exitX=0.799;exitY=0.112;exitDx=0;exitDy=0;exitPerimeter=0;" parent="1" source="TysYCp-ceym04RC-b8es-196" target="TysYCp-ceym04RC-b8es-14" edge="1">
          <mxGeometry relative="1" as="geometry">
            <mxPoint x="170" y="1013" as="sourcePoint" />
            <mxPoint x="330" y="1013" as="targetPoint" />
          </mxGeometry>
        </mxCell>
        <mxCell id="TysYCp-ceym04RC-b8es-202" value="" style="endArrow=none;html=1;rounded=0;entryX=0.676;entryY=1.099;entryDx=0;entryDy=0;entryPerimeter=0;exitX=1;exitY=0;exitDx=0;exitDy=0;" parent="1" source="TysYCp-ceym04RC-b8es-112" target="TysYCp-ceym04RC-b8es-14" edge="1">
          <mxGeometry relative="1" as="geometry">
            <mxPoint x="170" y="1013" as="sourcePoint" />
            <mxPoint x="330" y="1013" as="targetPoint" />
          </mxGeometry>
        </mxCell>
        <mxCell id="TysYCp-ceym04RC-b8es-203" value="" style="endArrow=none;html=1;rounded=0;entryX=0.858;entryY=1.023;entryDx=0;entryDy=0;entryPerimeter=0;exitX=0;exitY=0;exitDx=0;exitDy=0;" parent="1" source="TysYCp-ceym04RC-b8es-147" target="TysYCp-ceym04RC-b8es-14" edge="1">
          <mxGeometry relative="1" as="geometry">
            <mxPoint x="843" y="1485" as="sourcePoint" />
            <mxPoint x="330" y="1013" as="targetPoint" />
          </mxGeometry>
        </mxCell>
        <mxCell id="TysYCp-ceym04RC-b8es-204" value="" style="endArrow=none;html=1;rounded=0;entryX=0;entryY=0;entryDx=0;entryDy=0;exitX=1;exitY=1;exitDx=0;exitDy=0;" parent="1" source="TysYCp-ceym04RC-b8es-14" target="TysYCp-ceym04RC-b8es-68" edge="1">
          <mxGeometry relative="1" as="geometry">
            <mxPoint x="170" y="1013" as="sourcePoint" />
            <mxPoint x="330" y="1013" as="targetPoint" />
          </mxGeometry>
        </mxCell>
        <mxCell id="UvagnndVl9to9qw16bUN-1" value="&lt;font style=&quot;font-size: 20px;&quot;&gt;&lt;b&gt;Belgons&lt;/b&gt;&lt;/font&gt;" style="shape=rhombus;perimeter=rhombusPerimeter;whiteSpace=wrap;html=1;align=center;rounded=1;" vertex="1" parent="1">
          <mxGeometry x="1694" y="1073" width="189" height="102" as="geometry" />
        </mxCell>
        <mxCell id="UvagnndVl9to9qw16bUN-4" value="" style="endArrow=none;html=1;rounded=0;entryX=0.5;entryY=1;entryDx=0;entryDy=0;exitX=0.5;exitY=0;exitDx=0;exitDy=0;" edge="1" parent="1" source="TysYCp-ceym04RC-b8es-7" target="UvagnndVl9to9qw16bUN-1">
          <mxGeometry relative="1" as="geometry">
            <mxPoint x="1801" y="1085" as="sourcePoint" />
            <mxPoint x="1791" y="970" as="targetPoint" />
          </mxGeometry>
        </mxCell>
      </root>
    </mxGraphModel>
  </diagram>
</mxfile>
